<?xml version="1.0" encoding="utf-8"?>
<!-- Generator: Adobe Illustrator 18.0.0, SVG Export Plug-In . SVG Version: 6.00 Build 0)  -->
<!DOCTYPE svg PUBLIC "-//W3C//DTD SVG 1.1//EN" "http://www.w3.org/Graphics/SVG/1.1/DTD/svg11.dtd">
<svg version="1.1" id="Warstwa_1" xmlns="http://www.w3.org/2000/svg" xmlns:xlink="http://www.w3.org/1999/xlink" x="0px" y="0px"
	 viewBox="480 0 800 800" enable-background="new 480 0 800 800" xml:space="preserve">
<g>
	<g>
		<g>
			<g>
				<defs>
					<circle id="SVGID_1_" cx="880" cy="400" r="400"/>
				</defs>
				<clipPath id="SVGID_2_">
					<use xlink:href="#SVGID_1_"  overflow="visible"/>
				</clipPath>
				<g clip-path="url(#SVGID_2_)">
					<circle fill="#FF6C13" cx="880" cy="400" r="400"/>
					<g>
						<g>
							<g>
								<g>
									<polygon fill="#E25610" points="970.8,412.4 706.7,262.4 618.7,575.9 724.8,655.9 800.7,709.1 800.7,451.7 970.8,564.4 
										1128.1,772.5 1128.1,772.5 1234.7,655.8 1363.1,389.8 1234.7,262.4 1146.6,182.5 									"/>
								</g>
								<polygon fill="#E25610" points="970.8,653.1 800.7,528.5 800.7,709.1 947,808 1128.1,772.5 1052.7,510.1 938.2,543 								
									"/>
							</g>
						</g>
						<polyline fill="#E25610" points="1322.6,342.4 1234.7,262.4 1058.7,492.5 						"/>
						<g>
							<polygon fill="#FFFFFF" points="882.7,332.4 618.7,182.5 618.7,575.9 712.6,629.2 712.6,371.8 882.7,484.5 1052.7,371.8 
								1052.7,629.2 1146.6,575.9 1146.6,182.5 							"/>
							<polygon fill="#FFFFFF" points="882.7,573.2 761.4,507.1 761.4,649.2 882.7,710.5 1003.9,649.2 1003.9,507.1 							"/>
						</g>
					</g>
				</g>
			</g>
		</g>
	</g>
</g>
</svg>
