<?xml version="1.0" encoding="utf-8"?>
<!-- Generator: Adobe Illustrator 18.0.0, SVG Export Plug-In . SVG Version: 6.00 Build 0)  -->
<!DOCTYPE svg PUBLIC "-//W3C//DTD SVG 1.1//EN" "http://www.w3.org/Graphics/SVG/1.1/DTD/svg11.dtd">
<svg version="1.1" id="Warstwa_1" xmlns="http://www.w3.org/2000/svg" xmlns:xlink="http://www.w3.org/1999/xlink" x="0px" y="0px"
	 viewBox="240 0 800 800" enable-background="new 240 0 800 800" xml:space="preserve">
<g>
	<g>
		<g>
			<defs>
				<circle id="SVGID_1_" cx="640" cy="400" r="400"/>
			</defs>
			<clipPath id="SVGID_2_">
				<use xlink:href="#SVGID_1_"  overflow="visible"/>
			</clipPath>
			<g clip-path="url(#SVGID_2_)">
				<circle fill="#FF6C13" cx="640" cy="400" r="400"/>
				<g>
					<g>
						<g>
							<g>
								<polygon fill="#E25610" points="730.8,412.4 466.7,262.4 378.7,575.9 484.8,655.9 560.7,709.1 560.7,451.7 730.8,564.4 
									888.1,772.5 888.1,772.5 994.7,655.8 1123.1,389.8 994.7,262.4 906.6,182.5 								"/>
							</g>
							<polygon fill="#E25610" points="730.8,653.1 560.7,528.5 560.7,709.1 707,808 888.1,772.5 812.7,510.1 698.2,543 							"/>
						</g>
					</g>
					<polyline fill="#E25610" points="1082.6,342.4 994.7,262.4 818.7,492.5 					"/>
					<g>
						<polygon fill="#FFFFFF" points="642.7,332.4 378.7,182.5 378.7,575.9 472.6,629.2 472.6,371.8 642.7,484.5 812.7,371.8 
							812.7,629.2 906.6,575.9 906.6,182.5 						"/>
						<polygon fill="#FFFFFF" points="642.7,573.2 521.4,507.1 521.4,649.2 642.7,710.5 763.9,649.2 763.9,507.1 						"/>
					</g>
				</g>
			</g>
		</g>
	</g>
</g>
</svg>
