<?xml version="1.0" encoding="utf-8"?>
<!-- Generator: Adobe Illustrator 18.0.0, SVG Export Plug-In . SVG Version: 6.00 Build 0)  -->
<!DOCTYPE svg PUBLIC "-//W3C//DTD SVG 1.1//EN" "http://www.w3.org/Graphics/SVG/1.1/DTD/svg11.dtd">
<svg version="1.1" id="Warstwa_1" xmlns="http://www.w3.org/2000/svg" xmlns:xlink="http://www.w3.org/1999/xlink" x="0px" y="0px"
	 viewBox="0 0 1280 800" enable-background="new 0 0 1280 800" xml:space="preserve">
<path fill="#E25610" d="M642.9,528.9"/>
<text transform="matrix(1 0 0 1 412.8604 450.8527)" font-family="'Roboto'" font-size="100.2669">MinecraftMarket</text>
<g>
	<g>
		<defs>
			<path id="SVGID_1_" d="M357.4,392.9c16.3,81.5-54.1,151.9-135.7,135.7c-44.5-8.9-79.6-44-88.5-88.5
				c-16.3-81.5,54.1-151.9,135.7-135.7C313.4,313.3,348.5,348.3,357.4,392.9z"/>
		</defs>
		<clipPath id="SVGID_2_">
			<use xlink:href="#SVGID_1_"  overflow="visible"/>
		</clipPath>
		<g clip-path="url(#SVGID_2_)">
			<path fill="#FF6C13" d="M357.4,392.9c16.3,81.5-54.1,151.9-135.7,135.7c-44.5-8.9-79.6-44-88.5-88.5
				c-16.3-81.5,54.1-151.9,135.7-135.7C313.4,313.3,348.5,348.3,357.4,392.9z"/>
			<g>
				<g>
					<g>
						<g>
							<polygon fill="#E15610" points="271.2,420 195.7,377.1 170.5,466.7 200.9,489.7 222.6,504.9 222.6,431.3 271.2,463.5 
								316.3,523 316.3,523 346.8,489.6 383.5,413.5 346.8,377.1 321.6,354.2 							"/>
						</g>
						<polygon fill="#E15610" points="271.2,488.9 222.6,453.2 222.6,504.9 264.5,533.2 316.3,523 294.7,448 262,457.3 						"/>
					</g>
				</g>
				<polyline fill="#E15610" points="372,400 346.8,377.1 296.4,442.9 				"/>
				<g>
					<polygon fill="#FFFFFF" points="246.1,397.1 170.5,354.2 170.5,466.7 197.4,482 197.4,408.4 246.1,440.6 294.7,408.4 
						294.7,482 321.6,466.7 321.6,354.2 					"/>
					<polygon fill="#FFFFFF" points="246.1,466 211.4,447.1 211.4,487.7 246.1,505.3 280.8,487.7 280.8,447.1 					"/>
				</g>
			</g>
		</g>
	</g>
</g>
</svg>
